<?xml version="1.0" encoding="UTF-8" standalone="no"?>
<!-- Created with Inkscape (http://www.inkscape.org/) -->

<svg
   width="278mm"
   height="214mm"
   viewBox="0 0 278 214"
   version="1.1"
   id="svg5"
   xml:space="preserve"
   inkscape:version="1.2 (dc2aedaf03, 2022-05-15)"
   sodipodi:docname="logo_2.svg"
   xmlns:inkscape="http://www.inkscape.org/namespaces/inkscape"
   xmlns:sodipodi="http://sodipodi.sourceforge.net/DTD/sodipodi-0.dtd"
   xmlns="http://www.w3.org/2000/svg"
   xmlns:svg="http://www.w3.org/2000/svg"><sodipodi:namedview
     id="namedview7"
     pagecolor="#ffffff"
     bordercolor="#000000"
     borderopacity="0.25"
     inkscape:showpageshadow="2"
     inkscape:pageopacity="0.0"
     inkscape:pagecheckerboard="0"
     inkscape:deskcolor="#d1d1d1"
     inkscape:document-units="mm"
     showgrid="false"
     inkscape:zoom="0.1767767"
     inkscape:cx="-127.27922"
     inkscape:cy="280.01428"
     inkscape:window-width="1920"
     inkscape:window-height="991"
     inkscape:window-x="-9"
     inkscape:window-y="-9"
     inkscape:window-maximized="1"
     inkscape:current-layer="layer1" /><defs
     id="defs2"><inkscape:path-effect
       effect="skeletal"
       id="path-effect370"
       is_visible="true"
       lpeversion="1"
       pattern="M 0,4.9921382 C 0,2.2364779 2.2364779,0 4.9921382,0 c 2.7556604,0 4.9921383,2.2364779 4.9921383,4.9921382 0,2.7556604 -2.2364779,4.9921383 -4.9921383,4.9921383 C 2.2364779,9.9842765 0,7.7477986 0,4.9921382 Z"
       copytype="single_stretched"
       prop_scale="0.15098804"
       scale_y_rel="false"
       spacing="0"
       normal_offset="0"
       tang_offset="0"
       prop_units="false"
       vertical_pattern="false"
       hide_knot="false"
       fuse_tolerance="0" /></defs><g
     inkscape:label="Layer 1"
     inkscape:groupmode="layer"
     id="layer1"><g
       style="fill:#ffffff"
       id="g2372"
       transform="matrix(0.22717404,0,0,0.22717404,19.388031,301.66279)"><path
         d="M 10.478,1.647 A 0.50009299,0.50009299 0 1 0 9.522,1.353 l -4,13 a 0.50009299,0.50009299 0 0 0 0.956,0.294 z M 4.854,4.146 a 0.5,0.5 0 0 1 0,0.708 L 1.707,8 4.854,11.146 a 0.5006316,0.5006316 0 0 1 -0.708,0.708 l -3.5,-3.5 a 0.5,0.5 0 0 1 0,-0.708 l 3.5,-3.5 a 0.5,0.5 0 0 1 0.708,0 z m 6.292,0 a 0.5,0.5 0 0 0 0,0.708 L 14.293,8 11.146,11.146 a 0.5006316,0.5006316 0 0 0 0.708,0.708 l 3.5,-3.5 a 0.5,0.5 0 0 0 0,-0.708 l -3.5,-3.5 a 0.5,0.5 0 0 0 -0.708,0 z"
         id="path2363"
         style="fill:#ffffff" /></g><g
       id="g2821"
       transform="matrix(10.666459,0,0,10.666459,-739.42657,-2318.6944)"
       style="fill:#ffffff"><g
         id="g2799"
         style="fill:#ffffff"
         transform="translate(27.127857,75.1161)"><path
           style="fill:#ffffff;stroke:none;stroke-width:0.264583;stroke-linecap:round;stroke-dasharray:none"
           d="m 49.510156,157.31133 c 0,0 -0.942578,0.1819 -1.091407,1.0914 -0.148828,0.90951 0.429948,1.27331 1.488282,0.81029 1.058333,-0.46302 1.719791,-2.28203 4.20026,-1.53789 2.480469,0.74414 1.107943,3.43958 -1.141016,4.2664 -2.248958,0.82683 -4.679817,0.19844 -5.440494,-1.52135 -0.760677,-1.71979 0.843359,-3.175 1.984375,-3.10885 z"
           id="path2793" /><path
           style="fill:#ffffff;stroke:none;stroke-width:0.264583;stroke-linecap:round;stroke-dasharray:none"
           d="m 61.197082,157.31133 c 0,0 0.942578,0.1819 1.091407,1.0914 0.148828,0.90951 -0.429948,1.27331 -1.488282,0.81029 -1.058333,-0.46302 -1.719791,-2.28203 -4.20026,-1.53789 -2.480469,0.74414 -1.107943,3.43958 1.141016,4.2664 2.248958,0.82683 4.679817,0.19844 5.440494,-1.52135 0.760677,-1.71979 -0.843359,-3.175 -1.984375,-3.10885 z"
           id="path2795" /></g><g
         id="g2812"
         transform="translate(-1.539458,1.3096207)"
         style="fill:#ffffff"><path
           id="path2803"
           style="fill:#ffffff;stroke:none;stroke-width:0.264583;stroke-linecap:round;stroke-dasharray:none"
           d="M 79.931778 216.09818 C 79.559006 216.09618 79.255948 216.20596 78.964376 216.55189 C 78.031348 217.65888 77.003266 224.06355 77.003266 224.06355 C 73.935344 223.90541 71.116834 225.44178 71.116834 225.44178 C 74.630637 227.47048 84.020949 227.58893 84.020949 227.58893 C 84.020949 227.58893 93.411263 227.47048 96.925064 225.44178 C 96.925064 225.44178 94.106506 223.90541 91.038584 224.06355 C 91.038584 224.06355 90.010502 217.65888 89.077474 216.55189 C 88.144446 215.44491 87.09281 216.75717 84.020949 216.40926 C 81.909045 216.64845 80.751878 216.10285 79.931778 216.09818 z M 84.6326 219.42139 C 84.666491 219.42249 84.70529 219.4307 84.74902 219.44601 L 84.919604 219.50506 C 85.007064 219.53567 85.061734 219.57719 85.083599 219.62967 C 85.109837 219.67777 85.107621 219.74554 85.07701 219.833 L 83.614232 224.0836 C 83.587994 224.17106 83.548641 224.22573 83.496165 224.2476 C 83.448062 224.27384 83.380291 224.27167 83.29283 224.24106 L 83.122295 224.182 C 83.034834 224.15139 82.977949 224.10982 82.951711 224.05734 C 82.929846 224.00924 82.934229 223.94369 82.96484 223.8606 L 84.427618 219.60346 C 84.45823 219.52037 84.497582 219.4657 84.545685 219.43946 C 84.569737 219.42635 84.598709 219.4203 84.6326 219.42139 z M 82.216664 220.02316 C 82.223497 220.02268 82.230162 220.02271 82.236721 220.02326 C 82.29357 220.02763 82.352623 220.06698 82.413845 220.14133 L 82.525372 220.27252 C 82.586594 220.34249 82.612797 220.40588 82.604051 220.46273 C 82.599678 220.5152 82.562541 220.57209 82.492573 220.63331 L 81.370866 221.58443 C 81.296524 221.65003 81.259388 221.72218 81.259388 221.8009 C 81.259388 221.88399 81.296524 221.95614 81.370866 222.01736 L 82.499113 222.96194 C 82.569082 223.02317 82.606267 223.08 82.61064 223.13248 C 82.615013 223.18933 82.586594 223.25272 82.525372 223.32269 L 82.413845 223.45388 C 82.356996 223.52385 82.300159 223.5632 82.24331 223.57195 C 82.186461 223.57632 82.123025 223.5479 82.053056 223.48668 L 80.295135 222.01736 C 80.220794 221.95614 80.183609 221.88399 80.183609 221.8009 C 80.183609 221.71781 80.220794 221.64566 80.295135 221.58443 L 82.053056 220.10853 C 82.114279 220.05496 82.168834 220.02651 82.216664 220.02316 z M 85.826737 220.02316 C 85.877915 220.02651 85.934112 220.05496 85.995334 220.10853 L 87.746763 221.58443 C 87.821105 221.64566 87.858241 221.71781 87.858241 221.8009 C 87.858241 221.88399 87.823272 221.95614 87.753304 222.01736 L 85.988794 223.48668 C 85.918825 223.5479 85.855389 223.57632 85.79854 223.57195 C 85.746064 223.5632 85.689227 223.52385 85.628005 223.45388 L 85.516478 223.32269 C 85.455256 223.25272 85.429053 223.18933 85.437799 223.13248 C 85.442172 223.08 85.479309 223.02317 85.549277 222.96194 L 86.677525 222.01736 C 86.747493 221.95614 86.782511 221.88399 86.782511 221.8009 C 86.782511 221.72218 86.745326 221.65003 86.670984 221.58443 L 85.549277 220.63331 C 85.479309 220.57209 85.442172 220.5152 85.437799 220.46273 C 85.433426 220.40588 85.459629 220.34249 85.516478 220.27252 L 85.634593 220.14133 C 85.691443 220.06698 85.74828 220.02763 85.805129 220.02326 C 85.812235 220.02271 85.819425 220.02268 85.826737 220.02316 z " /></g></g><g
       style="fill:#ffffff"
       id="g3059"
       transform="matrix(0.22717404,0,0,0.22717404,-646.64763,301.66279)"><path
         d="M 10.478,1.647 A 0.50009299,0.50009299 0 1 0 9.522,1.353 l -4,13 a 0.50009299,0.50009299 0 0 0 0.956,0.294 z M 4.854,4.146 a 0.5,0.5 0 0 1 0,0.708 L 1.707,8 4.854,11.146 a 0.5006316,0.5006316 0 0 1 -0.708,0.708 l -3.5,-3.5 a 0.5,0.5 0 0 1 0,-0.708 l 3.5,-3.5 a 0.5,0.5 0 0 1 0.708,0 z m 6.292,0 a 0.5,0.5 0 0 0 0,0.708 L 14.293,8 11.146,11.146 a 0.5006316,0.5006316 0 0 0 0.708,0.708 l 3.5,-3.5 a 0.5,0.5 0 0 0 0,-0.708 l -3.5,-3.5 a 0.5,0.5 0 0 0 -0.708,0 z"
         id="path3057"
         style="fill:#ffffff" /></g><g
       id="g3075"
       transform="matrix(10.666459,0,0,10.666459,-1405.4622,-2318.6944)"><g
         id="g3065"
         style="fill:#000000"
         transform="translate(27.127857,75.1161)"><path
           style="fill:#000000;stroke:none;stroke-width:0.264583;stroke-linecap:round;stroke-dasharray:none"
           d="m 49.510156,157.31133 c 0,0 -0.942578,0.1819 -1.091407,1.0914 -0.148828,0.90951 0.429948,1.27331 1.488282,0.81029 1.058333,-0.46302 1.719791,-2.28203 4.20026,-1.53789 2.480469,0.74414 1.107943,3.43958 -1.141016,4.2664 -2.248958,0.82683 -4.679817,0.19844 -5.440494,-1.52135 -0.760677,-1.71979 0.843359,-3.175 1.984375,-3.10885 z"
           id="path3061" /><path
           style="fill:#000000;stroke:none;stroke-width:0.264583;stroke-linecap:round;stroke-dasharray:none"
           d="m 61.197082,157.31133 c 0,0 0.942578,0.1819 1.091407,1.0914 0.148828,0.90951 -0.429948,1.27331 -1.488282,0.81029 -1.058333,-0.46302 -1.719791,-2.28203 -4.20026,-1.53789 -2.480469,0.74414 -1.107943,3.43958 1.141016,4.2664 2.248958,0.82683 4.679817,0.19844 5.440494,-1.52135 0.760677,-1.71979 -0.843359,-3.175 -1.984375,-3.10885 z"
           id="path3063" /></g><g
         id="g3073"
         transform="translate(-1.539458,1.3096207)"><path
           id="path3067"
           style="fill:#000000;stroke:none;stroke-width:0.264583;stroke-linecap:round;stroke-dasharray:none"
           d="m 79.931778,216.09817 c -0.372773,-0.002 -0.675811,0.10779 -0.967383,0.45372 -0.933029,1.10699 -1.96112,7.51168 -1.96112,7.51168 -3.067925,-0.15814 -5.886463,1.37821 -5.886463,1.37821 3.513806,2.0287 12.904122,2.14716 12.904122,2.14716 0,0 9.390317,-0.11846 12.904122,-2.14716 0,0 -2.818537,-1.53635 -5.886462,-1.37821 0,0 -1.028092,-6.40469 -1.961121,-7.51168 -0.933028,-1.10698 -1.984675,0.20528 -5.056539,-0.14263 -2.111906,0.23919 -3.269055,-0.30642 -4.089156,-0.31109 z" /><text
           xml:space="preserve"
           style="font-style:normal;font-variant:normal;font-weight:bold;font-stretch:normal;font-size:7.1499px;font-family:'Miriam CLM';-inkscape-font-specification:'Miriam CLM, Bold';font-variant-ligatures:normal;font-variant-caps:normal;font-variant-numeric:normal;font-variant-east-asian:normal;fill:#ffffff;stroke:none;stroke-width:0.165942;stroke-linecap:round;stroke-dasharray:none"
           x="79.954018"
           y="223.80811"
           id="text3071"><tspan
             sodipodi:role="line"
             id="tspan3069"
             style="font-style:normal;font-variant:normal;font-weight:bold;font-stretch:normal;font-size:7.1499px;font-family:'Miriam CLM';-inkscape-font-specification:'Miriam CLM, Bold';font-variant-ligatures:normal;font-variant-caps:normal;font-variant-numeric:normal;font-variant-east-asian:normal;fill:#ffffff;stroke-width:0.165942"
             x="79.954018"
             y="223.80811">&lt;/&gt;</tspan></text></g></g></g></svg>
